<?xml version="1.0" encoding="utf-8"?><!-- Uploaded to: SVG Repo, www.svgrepo.com, Generator: SVG Repo Mixer Tools -->
<svg width="800px" height="800px" viewBox="0 0 24 24" fill="none" xmlns="http://www.w3.org/2000/svg">
<path d="M6.03001 8.03L7.25001 6.81V12.5C7.25001 12.91 7.59001 13.25 8.00001 13.25C8.41001 13.25 8.75001 12.91 8.75001 12.5V6.81L9.97001 8.03C10.12 8.18 10.31 8.25 10.5 8.25C10.69 8.25 10.88 8.18 11.03 8.03C11.32 7.74 11.32 7.26 11.03 6.97L8.53001 4.47C8.46001 4.4 8.38001 4.35 8.29001 4.31C8.11001 4.23 7.90001 4.23 7.72001 4.31C7.63001 4.35 7.55001 4.4 7.48001 4.47L4.98001 6.97C4.69001 7.26 4.69001 7.74 4.98001 8.03C5.27001 8.32 5.75001 8.32 6.04001 8.03H6.03001Z" fill="#000000"/>
<path d="M17.97 15.97L16.75 17.19V11.5C16.75 11.09 16.41 10.75 16 10.75C15.59 10.75 15.25 11.09 15.25 11.5V17.19L14.03 15.97C13.74 15.68 13.26 15.68 12.97 15.97C12.68 16.26 12.68 16.74 12.97 17.03L15.47 19.53C15.54 19.6 15.62 19.65 15.71 19.69C15.8 19.73 15.9 19.75 16 19.75C16.1 19.75 16.2 19.73 16.29 19.69C16.38 19.65 16.46 19.6 16.53 19.53L19.03 17.03C19.32 16.74 19.32 16.26 19.03 15.97C18.74 15.68 18.26 15.68 17.97 15.97Z" fill="#000000"/>
<path d="M19.03 6.03C19.32 5.74 19.32 5.26 19.03 4.97C18.74 4.68 18.26 4.68 17.97 4.97L16.75 6.19V5C16.75 4.59 16.41 4.25 16 4.25C15.59 4.25 15.25 4.59 15.25 5V7.69L4.97 17.97C4.68 18.26 4.68 18.74 4.97 19.03C5.12 19.18 5.31 19.25 5.5 19.25C5.69 19.25 5.88 19.18 6.03 19.03L7.25 17.81V19C7.25 19.41 7.59 19.75 8 19.75C8.41 19.75 8.75 19.41 8.75 19V16.31L19.03 6.03Z" fill="#000000"/>
</svg>